<?xml version="1.0" encoding="UTF-8"?>
<svg xmlns="http://www.w3.org/2000/svg" width="64" height="44" viewBox="0 0 64 44" fill="none">
  <defs>
    <filter id="glow" x="-20%" y="-20%" width="140%" height="140%">
      <feGaussianBlur stdDeviation="1.2" result="blur"/>
      <feMerge>
        <feMergeNode in="blur"/>
        <feMergeNode in="SourceGraphic"/>
      </feMerge>
    </filter>
  </defs>
  <path d="M 42.39 37.06 L 13.39 36.64 L 13.94 24.79 L -0.07 24.16 L 0.91 7.01 L 38.48 7.36 L 42.25 9.45 L 42.67 9.45 L 43.08 8.75 L 46.57 8.34 L 48.1 8.61 L 53.4 11.26 L 54.66 11.54 L 54.31 12.73 L 55.7 14.4 L 55.56 15.24 L 55.98 16.21 L 57.38 17.61 L 57.1 18.58 L 57.38 20.81 L 59.19 23.05 L 58.91 24.16 L 60.17 26.53 L 60.03 28.48 L 61.42 30.3 L 61.42 31.55 L 63.37 33.64 L 63.23 34.2 L 64.07 36.01 L 42.39 37.06 Z" fill="#ffffff" filter="url(#glow)"/>
</svg>
