<svg xmlns="http://www.w3.org/2000/svg" viewBox="0 0 200 200">
  <path fill-rule="evenodd" d="M110.6 102.7c3.8 3 5.7 12.1 5.7 12 7 2.2 11.4 6.9 11.4 6.9 10.8-6 11-3.3 15.7-6.9 3.9-2.6 3.7-3.5 5.7-10.5 1.9-5.8-4.8-5.2-10.3-15.7-9.6 3.6-14.7 2-18 1.7-1.5-.2-1.2 5.7-10.3 12.5m34.8 69.3c-1.3 1.8-2 2.2-3.7 4.6-2.8 3.6.8 9.1 2.6 8.2 2.1-.8 3.4-4.9 5.7-6.3 1.2-.6 4.2-5.2 7.1-8.2 2.1-2.4 3.7-3.5 5.7-6 3.4-4.2 4.1-7.5 7.1-12 1.9-2.4 3.1-3.1 4.8-6 8.9-16.9 6.3-24.5 14.8-36.5 2.6-3.6 5.6-4.4 9.7-6.6 3.9-28.1-8.9-43.8-8.8-43.9-10.7 6.3-16.5 8.8-27.7 8.2-4.2 0-6.4-1.8-10.5-1.5-3.9 0-5.9 1.6-9.7 2.9-5.9 1.8-9.2 3.5-15.4 5.4-4 1.1-6.5 1.2-10.6 2.6-3.5 1.5-1.8.3-4.3 3.1-3.2 3.5-2.4 6.3-5.4 12.3-3.7 7.9-3.3 9-1.2 9.9-1.4 4.1-1.8 6.8-1.4 11.1.4 3.3-1.1 5.7 2.6 8.3 4.9 3.6 15.1 12.1 17.7 12.2 3.9-.1 15.3.3 21.1-3.7 1.3-.8 1.7-1.6.6 1.5-.2.4-14.4 11.4-16 11.4-18.1.6-12 1.6-13.1 1.2-.9 0-9.7-10.6-14.9-6.9-2 1.2-2.9 2.4-3.7 4.5.7 1.4 3.9 3.6 6.8 5.4 4.2 2.7 4.6 5.6 8.9 6.6 5.2 1.2 10.7.4 14 .8 1.3.3 12.6-3 19.7-6.8 6.5-3.4-9 6.5-12.9 11.4-11.4 3.6-8.2 3.8-13.7 4.9-5.1 1.2-4.8.9-8.3 2-3.6.9-6.5 5.8-3.1 8.3 2 1.7 8.3-.7 14.5-.9 2.8 0 14-5.2 16.5-6.6 6.3-3.4 11.1-8.1 14.8-10.8 5.2-3.6-5.9 10-10.6 15.7M89.4 97.6c-3.8-3.1-5.7-12.2-5.7-12.2-7-2.1-11.4-6.7-11.4-6.6-10.8 5.9-11.1 3.1-15.7 6.6-3.9 2.8-3.7 3.7-5.7 10.5-1.9 6 4.7 5.4 10.3 15.7 9.6-3.5 14.7-1.8 18-1.4 1.5 0 1.2-5.8 10.3-12.5M54.7 28.3c1.3-1.9 2-2.3 3.7-4.6 2.7-3.7-.8-9.2-2.5-8.5-2.1 1-3.5 5.1-6 6.6-.9.5-4 5.1-6.9 8.2-2.1 2.3-3.7 3.4-5.7 6-3.5 4.1-4.1 7.3-7.1 11.7-1.9 2.6-3.2 3.3-4.8 6.2-8.9 16.8-6.3 24.4-14.8 36.2C8 93.9 5 94.7.9 97c-3.9 28.1 8.9 43.7 8.8 43.6 10.7-6.1 16.5-8.7 27.7-8.3 4.2.2 6.4 2 10.5 1.8 3.9-.2 5.9-1.7 9.7-2.9 5.9-2 9.2-3.6 15.1-5.4 4.2-1.2 6.7-1.3 10.9-2.9 3.5-1.3 1.8 0 4.3-2.8 3.1-3.6 2.4-6.4 5.1-12.2 4-8.1 3.6-9.1 1.4-10 1.4-4.1 1.8-6.8 1.4-11.1-.4-3.4 1-5.8-2.6-8.2-4.9-3.8-15.1-12.3-17.7-12.3-3.9 0-15.3-.4-21.1 3.4-1.4 1-1.7 1.8-.6-1.1.2-.5 14.4-11.6 16-11.7 18.1-.4 12-1.4 13.1-.9.9 0 9.6 10.5 14.9 6.9 1.9-1.3 2.9-2.5 3.7-4.5-.7-1.5-3.9-3.7-6.8-5.4-4.2-2.8-4.7-5.7-8.9-6.6-5.2-1.3-10.7-.5-14-1.1-1.3 0-12.6 3.2-19.7 6.8-6.6 3.5 9-6.3 12.8-11.4 11.4-3.4 8.1-3.6 13.7-4.8 5-1 4.8-.7 8.2-1.7 3.5-1 6.5-5.8 3.1-8.5-2.1-1.5-8.3.8-14.5.9-2.8.2-14 5.4-16.5 6.8-6.4 3.3-11.1 8.1-14.8 10.5-5.3 3.8 5.9-9.7 10.6-15.4"/>
</svg>
